<svg width="125" height="18" viewBox="0 0 115 18" fill="none" xmlns="http://www.w3.org/2000/svg">
<path d="M0.815341 8.17045V7.14773L9.0483 2.95455V4.59091L2.73295 7.63352L2.78409 7.53125V7.78693L2.73295 7.68466L9.0483 10.7273V12.3636L0.815341 8.17045ZM11.7346 2.31534V0.909091H21.5527V2.31534H17.4363V14H15.851V2.31534H11.7346ZM26.4874 14.2045C25.5414 14.2045 24.7253 13.9957 24.0392 13.5781C23.3574 13.1562 22.8311 12.5682 22.4604 11.8139C22.0939 11.0554 21.9107 10.1733 21.9107 9.16761C21.9107 8.16193 22.0939 7.27557 22.4604 6.50852C22.8311 5.73722 23.3468 5.13636 24.0073 4.70597C24.6721 4.27131 25.4476 4.05398 26.334 4.05398C26.8453 4.05398 27.3503 4.1392 27.8489 4.30966C28.3475 4.48011 28.8013 4.7571 29.2104 5.14062C29.6195 5.51989 29.9455 6.02273 30.1884 6.64915C30.4313 7.27557 30.5527 8.04687 30.5527 8.96307V9.60227H22.9846V8.2983H29.0186C29.0186 7.74432 28.9078 7.25 28.6863 6.81534C28.4689 6.38068 28.1578 6.03764 27.753 5.78622C27.3525 5.5348 26.8794 5.40909 26.334 5.40909C25.7331 5.40909 25.2132 5.55824 24.7743 5.85653C24.3397 6.15057 24.0051 6.53409 23.7708 7.0071C23.5364 7.48011 23.4192 7.98722 23.4192 8.52841V9.39773C23.4192 10.1392 23.5471 10.7678 23.8027 11.2834C24.0627 11.7947 24.4228 12.1847 24.883 12.4531C25.3432 12.7173 25.878 12.8494 26.4874 12.8494C26.8837 12.8494 27.2417 12.794 27.5613 12.6832C27.8851 12.5682 28.1642 12.3977 28.3986 12.1719C28.633 11.9418 28.8141 11.6562 28.9419 11.3153L30.3993 11.7244C30.2459 12.2188 29.9881 12.6534 29.6259 13.0284C29.2637 13.3991 28.8162 13.6889 28.2836 13.8977C27.7509 14.1023 27.1522 14.2045 26.4874 14.2045ZM39.802 6.38068L38.4469 6.7642C38.3617 6.53835 38.236 6.31889 38.0698 6.10582C37.9078 5.88849 37.6863 5.70952 37.405 5.56889C37.1238 5.42827 36.7637 5.35795 36.3248 5.35795C35.7239 5.35795 35.2232 5.49645 34.8226 5.77344C34.4263 6.04616 34.2282 6.39347 34.2282 6.81534C34.2282 7.19034 34.3645 7.48651 34.6373 7.70384C34.91 7.92116 35.3361 8.10227 35.9157 8.24716L37.373 8.60511C38.2509 8.81818 38.905 9.14418 39.3354 9.5831C39.7658 10.0178 39.981 10.5781 39.981 11.2642C39.981 11.8267 39.8191 12.3295 39.4952 12.7727C39.1756 13.2159 38.7282 13.5653 38.1529 13.821C37.5776 14.0767 36.9086 14.2045 36.1458 14.2045C35.1444 14.2045 34.3155 13.9872 33.6593 13.5526C33.003 13.1179 32.5875 12.483 32.4128 11.6477L33.8446 11.2898C33.981 11.8182 34.2388 12.2145 34.6181 12.4787C35.0016 12.7429 35.5023 12.875 36.1202 12.875C36.8233 12.875 37.3816 12.7259 37.7949 12.4276C38.2125 12.125 38.4213 11.7628 38.4213 11.3409C38.4213 11 38.302 10.7145 38.0634 10.4844C37.8248 10.25 37.4583 10.0753 36.964 9.96023L35.3276 9.5767C34.4284 9.36364 33.7679 9.03338 33.3461 8.58594C32.9284 8.13423 32.7196 7.5696 32.7196 6.89205C32.7196 6.33807 32.8752 5.84801 33.1863 5.42188C33.5016 4.99574 33.9299 4.66122 34.4711 4.41832C35.0165 4.17543 35.6344 4.05398 36.3248 4.05398C37.2963 4.05398 38.0591 4.26705 38.6131 4.69318C39.1713 5.11932 39.5676 5.68182 39.802 6.38068ZM46.5217 4.18182V5.46023H41.4336V4.18182H46.5217ZM42.9165 1.82955H44.4251V11.1875C44.4251 11.6136 44.4869 11.9332 44.6104 12.1463C44.7383 12.3551 44.9002 12.4957 45.0962 12.5682C45.2965 12.6364 45.5075 12.6705 45.729 12.6705C45.8952 12.6705 46.0316 12.6619 46.1381 12.6449C46.2447 12.6236 46.3299 12.6065 46.3938 12.5938L46.7006 13.9489C46.5984 13.9872 46.4556 14.0256 46.2724 14.0639C46.0891 14.1065 45.8569 14.1278 45.5756 14.1278C45.1495 14.1278 44.7319 14.0362 44.3228 13.853C43.918 13.6697 43.5813 13.3906 43.3129 13.0156C43.0487 12.6406 42.9165 12.1676 42.9165 11.5966V1.82955ZM73.7518 9.9858V4.18182H75.2603V14H73.7518V12.3381H73.6495C73.4194 12.8366 73.0614 13.2607 72.5756 13.6101C72.0898 13.9553 71.4762 14.1278 70.7347 14.1278C70.1211 14.1278 69.5756 13.9936 69.0984 13.7251C68.6211 13.4524 68.2461 13.0433 67.9734 12.4979C67.7006 11.9482 67.5643 11.2557 67.5643 10.4205V4.18182H69.0728V10.3182C69.0728 11.0341 69.2731 11.6051 69.6737 12.0312C70.0785 12.4574 70.5941 12.6705 71.2205 12.6705C71.5955 12.6705 71.9769 12.5746 72.3647 12.3828C72.7567 12.1911 73.0849 11.897 73.3491 11.5007C73.6175 11.1044 73.7518 10.5994 73.7518 9.9858ZM82.1397 14.2045C81.1937 14.2045 80.3777 13.9957 79.6916 13.5781C79.0098 13.1562 78.4835 12.5682 78.1127 11.8139C77.7463 11.0554 77.563 10.1733 77.563 9.16761C77.563 8.16193 77.7463 7.27557 78.1127 6.50852C78.4835 5.73722 78.9991 5.13636 79.6596 4.70597C80.3244 4.27131 81.1 4.05398 81.9863 4.05398C82.4977 4.05398 83.0027 4.1392 83.5012 4.30966C83.9998 4.48011 84.4537 4.7571 84.8627 5.14062C85.2718 5.51989 85.5978 6.02273 85.8407 6.64915C86.0836 7.27557 86.2051 8.04687 86.2051 8.96307V9.60227H78.6369V8.2983H84.671C84.671 7.74432 84.5602 7.25 84.3386 6.81534C84.1213 6.38068 83.8102 6.03764 83.4054 5.78622C83.0048 5.5348 82.5318 5.40909 81.9863 5.40909C81.3855 5.40909 80.8656 5.55824 80.4267 5.85653C79.992 6.15057 79.6575 6.53409 79.4231 7.0071C79.1887 7.48011 79.0716 7.98722 79.0716 8.52841V9.39773C79.0716 10.1392 79.1994 10.7678 79.4551 11.2834C79.715 11.7947 80.0751 12.1847 80.5353 12.4531C80.9956 12.7173 81.5304 12.8494 82.1397 12.8494C82.536 12.8494 82.894 12.794 83.2136 12.6832C83.5375 12.5682 83.8166 12.3977 84.051 12.1719C84.2853 11.9418 84.4664 11.6562 84.5943 11.3153L86.0517 11.7244C85.8983 12.2188 85.6404 12.6534 85.2782 13.0284C84.916 13.3991 84.4686 13.6889 83.9359 13.8977C83.4032 14.1023 82.8045 14.2045 82.1397 14.2045ZM88.4998 14V4.18182H89.9572V5.66477H90.0595C90.2385 5.17898 90.5623 4.7848 91.0311 4.48224C91.4998 4.17969 92.0282 4.02841 92.6163 4.02841C92.7271 4.02841 92.8656 4.03054 93.0318 4.0348C93.198 4.03906 93.3237 4.04545 93.4089 4.05398V5.58807C93.3578 5.57528 93.2406 5.55611 93.0574 5.53054C92.8784 5.50071 92.6887 5.4858 92.4885 5.4858C92.0112 5.4858 91.5851 5.58594 91.21 5.78622C90.8393 5.98224 90.5453 6.25497 90.3279 6.6044C90.1149 6.94957 90.0083 7.34375 90.0083 7.78693V14H88.4998ZM96.4675 17.6818C96.2118 17.6818 95.9838 17.6605 95.7836 17.6179C95.5833 17.5795 95.4448 17.5412 95.3681 17.5028L95.7516 16.1733C96.1181 16.267 96.4419 16.3011 96.7232 16.2756C97.0044 16.25 97.2537 16.1243 97.4711 15.8984C97.6926 15.6768 97.8951 15.3168 98.0783 14.8182L98.3596 14.0511L94.7289 4.18182H96.3652L99.0755 12.0057H99.1777L101.888 4.18182H103.524L99.3567 15.4318C99.1692 15.9389 98.937 16.3587 98.66 16.6911C98.383 17.0277 98.0613 17.277 97.6948 17.4389C97.3326 17.6009 96.9235 17.6818 96.4675 17.6818ZM114.183 9.39773L105.95 13.5909V11.9545L112.265 8.91193L112.214 9.0142V8.75852L112.265 8.8608L105.95 5.81818V4.18182L114.183 8.375V9.39773Z" fill="black"/>
<path d="M58.8136 9.90909H60.5522L62.0096 11.8267L62.3931 12.3381L64.5664 15.2273H62.8278L61.396 13.3097L61.038 12.8239L58.8136 9.90909ZM65.1033 7.45455C65.1033 8.83523 64.854 10.0284 64.3555 11.0341C63.8569 12.0398 63.1729 12.8153 62.3036 13.3608C61.4343 13.9062 60.4414 14.179 59.3249 14.179C58.2085 14.179 57.2156 13.9062 56.3462 13.3608C55.4769 12.8153 54.793 12.0398 54.2944 11.0341C53.7958 10.0284 53.5465 8.83523 53.5465 7.45455C53.5465 6.07386 53.7958 4.88068 54.2944 3.875C54.793 2.86932 55.4769 2.09375 56.3462 1.5483C57.2156 1.00284 58.2085 0.730113 59.3249 0.730113C60.4414 0.730113 61.4343 1.00284 62.3036 1.5483C63.1729 2.09375 63.8569 2.86932 64.3555 3.875C64.854 4.88068 65.1033 6.07386 65.1033 7.45455ZM63.5692 7.45455C63.5692 6.32102 63.3796 5.36435 63.0004 4.58452C62.6254 3.80469 62.1161 3.21449 61.4727 2.81392C60.8335 2.41335 60.1175 2.21307 59.3249 2.21307C58.5323 2.21307 57.8143 2.41335 57.1708 2.81392C56.5316 3.21449 56.0224 3.80469 55.6431 4.58452C55.2681 5.36435 55.0806 6.32102 55.0806 7.45455C55.0806 8.58807 55.2681 9.54474 55.6431 10.3246C56.0224 11.1044 56.5316 11.6946 57.1708 12.0952C57.8143 12.4957 58.5323 12.696 59.3249 12.696C60.1175 12.696 60.8335 12.4957 61.4727 12.0952C62.1161 11.6946 62.6254 11.1044 63.0004 10.3246C63.3796 9.54474 63.5692 8.58807 63.5692 7.45455Z" fill="#CF3939"/>
</svg>
